<?xml version="1.0" encoding="UTF-8" standalone="no"?>
<!-- Created with Inkscape (http://www.inkscape.org/) -->

<svg
   xmlns:dc="http://purl.org/dc/elements/1.1/"
   xmlns:cc="http://creativecommons.org/ns#"
   xmlns:rdf="http://www.w3.org/1999/02/22-rdf-syntax-ns#"
   xmlns:svg="http://www.w3.org/2000/svg"
   xmlns="http://www.w3.org/2000/svg"
   xmlns:sodipodi="http://sodipodi.sourceforge.net/DTD/sodipodi-0.dtd"
   xmlns:inkscape="http://www.inkscape.org/namespaces/inkscape"
   version="1.1"
   id="svg4747"
   xml:space="preserve"
   width="1066.6667"
   height="1066.6667"
   viewBox="0 0 1066.6667 1066.6667"
   sodipodi:docname="aries-clip-art-color-publicdomainvectors.org.svg"
   inkscape:version="0.92.4 (5da689c313, 2019-01-14)"><metadata
     id="metadata4753"><rdf:RDF><cc:Work
         rdf:about=""><dc:format>image/svg+xml</dc:format><dc:type
           rdf:resource="http://purl.org/dc/dcmitype/StillImage" /><dc:title></dc:title></cc:Work></rdf:RDF></metadata><defs
     id="defs4751"><clipPath
       clipPathUnits="userSpaceOnUse"
       id="clipPath4763"><path
         d="M 0,800 H 800 V 0 H 0 Z"
         id="path4761"
         inkscape:connector-curvature="0" /></clipPath></defs><sodipodi:namedview
     pagecolor="#ffffff"
     bordercolor="#666666"
     borderopacity="1"
     objecttolerance="10"
     gridtolerance="10"
     guidetolerance="10"
     inkscape:pageopacity="0"
     inkscape:pageshadow="2"
     inkscape:window-width="797"
     inkscape:window-height="480"
     id="namedview4749"
     showgrid="false"
     inkscape:zoom="0.23447639"
     inkscape:cx="533.33337"
     inkscape:cy="533.33337"
     inkscape:window-x="-8"
     inkscape:window-y="-8"
     inkscape:window-maximized="1"
     inkscape:current-layer="g4755" /><g
     id="g4755"
     inkscape:groupmode="layer"
     inkscape:label="aries-clip-art-color-publicdomainvectors.org"
     transform="matrix(1.3333333,0,0,-1.3333333,0,1066.6667)"><g
       id="g4757"><g
         id="g4759"
         clip-path="url(#clipPath4763)"><path
           d="m 49.335,445.563 -12.933,-7.376 -1.334,2.141 13.628,7.776 -8.514,33.816 -20.308,-3.89 -0.57,2.46 20.26,3.882 -8.772,34.844 -14.193,1.603 0.186,2.517 13.35,-1.507 -7.7,30.584 c -3.911,-13.049 -6.089,-26.46 -6.457,-40.037 -0.458,-18.694 2.712,-37.271 9.167,-53.715 5.242,-13.614 12.994,-26.458 22.663,-37.642 l 2.29,21.516 z"
           style="fill:#ae001a;fill-opacity:1;fill-rule:nonzero;stroke:none"
           id="path4765"
           inkscape:connector-curvature="0" /><path
           d="m 50.098,442.535 -2.29,-21.516 c 0.864,-1 1.745,-1.988 2.641,-2.961 z"
           style="fill:#ac768a;fill-opacity:1;fill-rule:nonzero;stroke:none"
           id="path4767"
           inkscape:connector-curvature="0" /><path
           d="m 50.449,418.058 c 1.46,-1.587 2.958,-3.141 4.497,-4.653 0.383,-0.377 0.771,-0.754 1.161,-1.129 l -6.009,30.259 z"
           style="fill:#b1311d;fill-opacity:1;fill-rule:nonzero;stroke:none"
           id="path4769"
           inkscape:connector-curvature="0" /><path
           d="m 365.039,145.906 c 1.94,0.033 3.933,0.035 5.965,0.031 l -3.211,9.789 z"
           style="fill:#c2f848;fill-opacity:1;fill-rule:nonzero;stroke:none"
           id="path4771"
           inkscape:connector-curvature="0" /><path
           d="m 366.263,142.317 8.906,-9.084 -2.894,8.825 c -2.046,0.101 -4.053,0.2 -6.012,0.259"
           style="fill:#c2f848;fill-opacity:1;fill-rule:nonzero;stroke:none"
           id="path4773"
           inkscape:connector-curvature="0" /><path
           d="m 357.142,151.597 5.56,-5.747 c 0.77,0.024 1.55,0.044 2.337,0.056 l 2.754,9.82 z"
           style="fill:#a3f59d;fill-opacity:1;fill-rule:nonzero;stroke:none"
           id="path4775"
           inkscape:connector-curvature="0" /><path
           d="m 402.407,146.704 c 2.707,0.015 5.42,0.041 8.148,0.055 0.601,0.004 1.203,0.015 1.808,0.017 5.262,-0.026 10.523,-0.05 15.7,-0.077 5.178,-0.004 10.276,-0.153 15.208,-0.219 0.529,-0.008 1.045,-0.019 1.565,-0.03 l 11.739,12.159 c 5.041,0 9.206,8.008 13.355,20.825 l -66.514,-15.44 z"
           style="fill:#ffd100;fill-opacity:1;fill-rule:nonzero;stroke:none"
           id="path4777"
           inkscape:connector-curvature="0" /><path
           d="m 424.964,118.057 -0.146,7.659 15.664,16.224 c -4.064,-0.072 -8.11,-0.167 -12.326,-0.169 -5.182,-0.026 -10.349,-0.055 -15.611,-0.085 -0.605,0.002 -1.024,0.008 -1.63,0.012 -4.533,0.023 -10.158,0.049 -13.165,0.075 v -0.607 h -1.092 c -3.398,0 -6.761,0.197 -10.064,0.353 l 33.951,-25.663 z"
           style="fill:#ffd100;fill-opacity:1;fill-rule:nonzero;stroke:none"
           id="path4779"
           inkscape:connector-curvature="0" /><path
           d="m 380.722,145.954 c 0.243,0.003 0.483,0.005 0.727,0.01 4.933,0.067 10.03,-0.288 15.209,-0.288 h 1.092 v 1.023 c 1.503,0.011 2.945,0.02 4.607,0.029 l -0.739,16.849 -33.825,-7.851 z"
           style="fill:#ffd100;fill-opacity:1;fill-rule:nonzero;stroke:none"
           id="path4781"
           inkscape:connector-curvature="0" /><path
           d="m 371.004,145.937 c 3.144,-0.009 6.391,-0.033 9.718,0.017 l -12.929,9.772 z"
           style="fill:#f9eb00;fill-opacity:1;fill-rule:nonzero;stroke:none"
           id="path4783"
           inkscape:connector-curvature="0" /><path
           d="m 375.169,133.233 5.607,-5.72 0.211,-8.716 22.301,-11.528 17.257,8.587 -33.951,25.663 c -1.732,0.08 -3.449,0.151 -5.145,0.173 -3.134,0.057 -6.196,0.215 -9.174,0.366 z"
           style="fill:#f9eb00;fill-opacity:1;fill-rule:nonzero;stroke:none"
           id="path4785"
           inkscape:connector-curvature="0" /><path
           d="m 351.456,157.473 5.686,-5.876 10.651,4.129 z"
           style="fill:#aff33d;fill-opacity:1;fill-rule:nonzero;stroke:none"
           id="path4787"
           inkscape:connector-curvature="0" /><path
           d="m 401.618,163.577 -0.682,15.559 -3.824,2.126 -19.144,10.665 -10.175,-36.201 z"
           style="fill:#ffce00;fill-opacity:1;fill-rule:nonzero;stroke:none"
           id="path4789"
           inkscape:connector-curvature="0" /><path
           d="m 435.957,255.112 c -0.147,5.772 -0.125,11.535 -0.114,17.298 L 405.9,291.309 381.869,205.807 h 15.156 5.185 8.345 40.694 l -24.525,-13.749 -16.169,-9.105 -6.237,-3.5 -0.902,-15.459 66.514,15.44 c 4.966,15.333 9.909,37.55 16.306,61.17 l -48.607,30.678 c -0.508,-5.391 -1.016,-10.784 -1.672,-16.17"
           style="fill:#ffce00;fill-opacity:1;fill-rule:nonzero;stroke:none"
           id="path4791"
           inkscape:connector-curvature="0" /><path
           d="m 784.481,523.336 0.186,-2.517 -7.906,-0.893 -12.578,-36.03 17.776,-3.406 -0.566,-2.46 -18.051,3.458 -0.435,-1.247 5.402,-38.118 c 3.008,5.334 5.624,10.861 7.805,16.523 6.459,16.459 9.631,35.036 9.169,53.735 -0.221,8.212 -1.107,16.363 -2.636,24.409 l -4.964,-14.221 z"
           style="fill:#df2c00;fill-opacity:1;fill-rule:nonzero;stroke:none"
           id="path4793"
           inkscape:connector-curvature="0" /><path
           d="m 363.985,279.444 c -0.666,7.725 -1.283,15.452 -1.83,23.183 l -97.634,25.266 0.429,-12.099 c 0,-5.526 36.085,-16.299 43.701,-37.905 6.072,-17.224 11.018,-35.222 15.379,-51.865 l 41.916,33.424 c -0.725,6.662 -1.288,13.334 -1.961,19.996"
           style="fill:#f0c500;fill-opacity:1;fill-rule:nonzero;stroke:none"
           id="path4795"
           inkscape:connector-curvature="0" /><path
           d="m 366.563,279.567 c -0.031,-6.55 0.041,-13.099 -0.036,-19.656 l 39.373,31.398 -39.7,10.272 c 0.176,-7.334 0.291,-14.673 0.363,-22.014"
           style="fill:#f0c500;fill-opacity:1;fill-rule:nonzero;stroke:none"
           id="path4797"
           inkscape:connector-curvature="0" /><path
           d="m 366.527,259.911 c -0.019,-1.598 -0.044,-3.197 -0.085,-4.799 -0.176,1.446 -0.338,2.892 -0.496,4.336 L 324.03,226.024 c 9.712,-37.076 16.509,-67.415 26.325,-67.415 l 1.101,-1.136 16.337,-1.747 10.175,36.201 -0.234,0.131 -24.566,13.749 h 28.701 l 24.031,85.502 z"
           style="fill:#f6e000;fill-opacity:1;fill-rule:nonzero;stroke:none"
           id="path4799"
           inkscape:connector-curvature="0" /><path
           d="m 435.84,279.567 c 0.08,8.146 0.209,16.29 0.42,24.429 0.067,3.072 0.157,6.143 0.253,9.212 L 405.9,291.309 435.843,272.41 c 0.005,2.385 0.009,4.773 -0.003,7.157"
           style="fill:#feb200;fill-opacity:1;fill-rule:nonzero;stroke:none"
           id="path4801"
           inkscape:connector-curvature="0" /><path
           d="m 481.534,344.313 c 1.736,-0.007 3.474,-0.018 5.207,0.14 1.738,0.103 3.479,0.203 5.208,0.446 1.738,0.176 3.477,0.406 5.197,0.744 1.735,0.276 3.456,0.616 5.173,1.009 1.724,0.361 3.451,0.726 5.148,1.215 1.702,0.471 3.431,0.879 5.102,1.448 0.568,0.186 1.138,0.364 1.708,0.541 l -4.082,16.063 -30.196,-21.602 c 0.511,-0.015 1.022,-0.02 1.535,-0.004"
           style="fill:#feb200;fill-opacity:1;fill-rule:nonzero;stroke:none"
           id="path4803"
           inkscape:connector-curvature="0" /><path
           d="m 513.021,348.097 c -1.635,-0.749 -3.324,-1.339 -5,-1.988 -1.662,-0.672 -3.374,-1.22 -5.085,-1.77 -1.703,-0.603 -3.45,-1.043 -5.207,-1.469 -1.74,-0.477 -3.51,-0.846 -5.296,-1.163 -1.774,-0.381 -3.57,-0.64 -5.381,-0.824 -1.8,-0.261 -3.621,-0.349 -5.441,-0.441 -1.821,-0.15 -3.644,-0.074 -5.473,-0.063 -0.535,-0.015 -1.071,0 -1.604,0.028 l -33.346,-23.854 c -0.265,-4.251 -0.542,-8.501 -0.855,-12.751 -0.57,-8.122 -1.22,-16.242 -1.915,-24.358 -0.275,-2.719 -0.532,-5.439 -0.789,-8.162 l 48.607,-30.678 c 3.334,12.307 7.062,24.994 11.394,37.285 4.245,12.039 17.327,20.713 28.081,26.991 l -11.155,43.884 c -0.513,-0.218 -1.026,-0.439 -1.535,-0.667"
           style="fill:#feb200;fill-opacity:1;fill-rule:nonzero;stroke:none"
           id="path4805"
           inkscape:connector-curvature="0" /><path
           d="m 514.277,349.856 c 1.122,0.349 2.245,0.698 3.358,1.098 l 5.055,1.732 -4.772,-2.411 c -1.096,-0.547 -2.229,-1.026 -3.362,-1.511 l 11.155,-43.884 c 8.546,4.989 15.623,8.467 15.623,10.914 l 1.131,31.845 -3.439,5.608 -28.831,12.672 z"
           style="fill:#fe9400;fill-opacity:1;fill-rule:nonzero;stroke:none"
           id="path4807"
           inkscape:connector-curvature="0" /><path
           d="m 742.983,453.571 23.215,-13.243 -1.336,-2.141 -23.4,13.348 -19.048,-25.497 16.15,-18.177 -1.95,-1.603 -15.74,17.717 -21.69,-29.034 4.222,-9.061 -2.328,-0.98 -3.611,7.743 -10.327,-13.824 c 5.378,1.478 10.731,3.365 15.988,5.648 l 6.001,2.734 6.087,3.255 c 1.586,0.839 2.654,1.479 3.72,2.121 l 6.844,4.242 c 7.542,5.012 14.449,10.591 20.533,16.584 8.636,8.485 16.076,18.223 21.996,28.72 l -5.402,38.118 z"
           style="fill:#f04f00;fill-opacity:1;fill-rule:nonzero;stroke:none"
           id="path4809"
           inkscape:connector-curvature="0" /><path
           d="m 708.867,437.489 c -2.115,-2.117 -4.374,-4.182 -6.773,-6.177 l 0.517,-0.215 -1.198,-1.152 v 0.003 l -0.517,-0.04 -0.219,-0.007 -4.229,-2.999 c -1.166,-0.855 -2.325,-1.664 -3.115,-2.124 l -3.259,-2.162 -2.989,-1.719 12.099,-25.956 21.69,29.034 z"
           style="fill:#f64e00;fill-opacity:1;fill-rule:nonzero;stroke:none"
           id="path4811"
           inkscape:connector-curvature="0" /><path
           d="m 684.853,419.688 c -8.391,-4.457 -16.738,-7.24 -24.927,-8.318 l 1.671,-35.32 -2.529,-0.022 -1.655,35.043 c -1.451,-0.131 -2.9,-0.217 -4.344,-0.24 l -1.156,-0.012 c -5.154,0 -10.371,0.71 -15.518,2.074 l -0.085,-35.156 c 5.003,-1.249 10.06,-2.091 15.089,-2.489 11.502,-0.995 23.684,0.258 35.741,3.571 l 10.327,13.824 z"
           style="fill:#f64e00;fill-opacity:1;fill-rule:nonzero;stroke:none"
           id="path4813"
           inkscape:connector-curvature="0" /><path
           d="m 725.445,460.672 c -2.926,-6.046 -6.608,-11.792 -11.063,-17.162 -1.178,-1.422 -2.449,-2.817 -3.762,-4.198 l 11.794,-13.274 19.048,25.497 z"
           style="fill:#f64e00;fill-opacity:1;fill-rule:nonzero;stroke:none"
           id="path4815"
           inkscape:connector-curvature="0" /><path
           d="m 702.843,464.05 c -2.079,-4.228 -4.618,-8.083 -7.364,-11.614 -2.704,-3.565 -5.69,-6.772 -8.817,-9.593 -6.295,-5.619 -13.059,-9.785 -19.399,-12.906 -6.397,-2.996 -12.327,-5.115 -17.339,-6.489 -5.016,-1.378 -9.068,-2.193 -11.846,-2.732 -0.622,-0.11 -1.176,-0.206 -1.666,-0.291 l -0.002,-0.63 c 0.509,-0.034 1.087,-0.074 1.738,-0.116 2.84,-0.045 7.053,-0.272 12.403,0.219 5.356,0.425 11.894,1.371 19.209,3.581 3.642,1.123 7.492,2.524 11.441,4.33 3.934,1.832 7.925,4.13 11.879,6.889 3.953,2.766 7.849,6.025 11.524,9.798 3.639,3.808 7.019,8.146 9.969,12.954 4.135,6.616 7.408,14.175 9.487,22.298 l -15.676,-0.2 c -1.264,-5.479 -3.127,-10.703 -5.541,-15.498"
           style="fill:#f64e00;fill-opacity:1;fill-rule:nonzero;stroke:none"
           id="path4817"
           inkscape:connector-curvature="0" /><path
           d="m 662.507,466.547 c 0.267,0.105 0.541,0.218 0.842,0.363 1.401,0.635 4.112,2.094 7.13,5.016 2.112,2.044 4.083,4.494 5.816,7.216 l -6.036,-0.078 c -1.064,-1.716 -2.097,-3.066 -2.946,-4.062 -2.213,-2.575 -4.218,-4.01 -5.516,-4.765 -0.158,-0.094 -0.309,-0.182 -0.453,-0.258 l 0.004,-0.099 z"
           style="fill:#f64e00;fill-opacity:1;fill-rule:nonzero;stroke:none"
           id="path4819"
           inkscape:connector-curvature="0" /><path
           d="m 731.97,479.848 c -0.377,-1.818 -0.813,-3.619 -1.313,-5.396 -1.081,-3.935 -2.469,-7.766 -4.135,-11.491 l 16.461,-9.39 19.924,26.67 z"
           style="fill:#f64e00;fill-opacity:1;fill-rule:nonzero;stroke:none"
           id="path4821"
           inkscape:connector-curvature="0" /><path
           d="m 289.831,349.315 c 1.673,-0.569 3.403,-0.977 5.103,-1.448 1.7,-0.489 3.426,-0.854 5.149,-1.215 1.715,-0.393 3.438,-0.733 5.171,-1.009 1.721,-0.338 3.459,-0.568 5.194,-0.744 1.733,-0.243 3.473,-0.343 5.212,-0.446 1.732,-0.158 3.47,-0.147 5.205,-0.14 1.739,-0.053 3.465,0.114 5.191,0.214 1.73,0.055 3.439,0.384 5.153,0.548 1.718,0.182 3.403,0.596 5.103,0.881 1.688,0.342 3.353,0.824 5.029,1.228 l 4.948,1.55 4.865,1.811 4.774,2.079 4.677,2.311 3.486,1.723 0.202,-3.849 c 0.435,-8.13 0.723,-16.265 1.087,-24.399 0.269,-8.135 0.58,-16.271 0.763,-24.414 0.021,-0.805 0.037,-1.61 0.057,-2.415 l 39.7,-10.272 0.803,146.413 -48.846,-35.229 c 0.521,-1.554 0.851,-3.101 1.277,-4.506 0.086,-0.278 0.138,-0.552 0.205,-0.831 0.171,-0.703 0.301,-1.402 0.394,-2.074 0.139,-0.93 0.267,-1.812 0.385,-2.642 0.317,-1.638 0.276,-3.113 0.308,-4.307 0.041,-2.394 0.018,-3.738 0.018,-3.738 0,0 -0.359,1.327 -0.907,3.618 -0.274,1.141 -0.546,2.535 -1.104,4.073 -0.256,0.768 -0.526,1.587 -0.808,2.45 -0.27,0.846 -0.525,1.739 -0.939,2.62 -0.009,0.018 -0.015,0.037 -0.024,0.058 -0.387,0.907 -0.792,1.855 -1.212,2.835 -0.082,0.178 -0.155,0.36 -0.229,0.544 l -32.579,-23.495 c 0.738,-0.971 1.426,-1.938 2.075,-2.876 0.517,-0.767 0.981,-1.516 1.43,-2.259 -3.249,-0.234 -7.094,-0.351 -11.165,-0.39 l -29.115,-20.996 c 1.32,-0.439 2.648,-0.834 3.964,-1.262"
           style="fill:#fb9b00;fill-opacity:1;fill-rule:nonzero;stroke:none"
           id="path4823"
           inkscape:connector-curvature="0" /><path
           d="m 362.07,303.802 c -0.602,8.121 -1.069,16.25 -1.579,24.376 -0.347,6.859 -0.734,13.718 -1.063,20.579 l -1.412,-0.68 -5.033,-2.126 -5.152,-1.857 c -1.76,-0.504 -3.515,-1.018 -5.283,-1.485 -1.794,-0.372 -3.567,-0.823 -5.373,-1.128 -1.814,-0.25 -3.611,-0.622 -5.438,-0.758 -1.825,-0.133 -3.64,-0.388 -5.472,-0.344 -1.829,-0.011 -3.656,-0.087 -5.476,0.063 -1.821,0.092 -3.641,0.182 -5.441,0.441 -1.808,0.184 -3.605,0.445 -5.382,0.824 -1.782,0.317 -3.552,0.686 -5.296,1.163 -1.753,0.426 -3.503,0.866 -5.203,1.469 -1.715,0.55 -3.424,1.098 -5.091,1.77 -1.674,0.649 -3.362,1.239 -4.995,1.988 -1.438,0.646 -2.902,1.231 -4.315,1.902 l -20.798,-14.998 0.253,-7.108 97.634,-25.266 c -0.027,0.394 -0.057,0.784 -0.085,1.175"
           style="fill:#fb9b00;fill-opacity:1;fill-rule:nonzero;stroke:none"
           id="path4825"
           inkscape:connector-curvature="0" /><path
           d="m 465.228,341.481 c -1.805,0.305 -3.58,0.756 -5.374,1.128 -1.768,0.467 -3.523,0.981 -5.285,1.485 l -5.152,1.857 -5.032,2.126 -1.413,0.68 c -0.326,-6.861 -0.714,-13.72 -1.063,-20.579 -0.244,-3.876 -0.477,-7.749 -0.721,-11.625 l 33.346,23.854 c -1.293,0.067 -2.58,0.22 -3.871,0.316 -1.827,0.136 -3.621,0.508 -5.435,0.758"
           style="fill:#ffa300;fill-opacity:1;fill-rule:nonzero;stroke:none"
           id="path4827"
           inkscape:connector-curvature="0" /><path
           d="m 446.886,406.061 c -0.552,-1.041 -1.089,-2.061 -1.618,-3.051 -0.261,-0.5 -0.522,-0.99 -0.782,-1.473 -0.24,-0.493 -0.407,-1.004 -0.628,-1.488 -0.42,-0.98 -0.825,-1.928 -1.212,-2.835 -0.009,-0.021 -0.014,-0.04 -0.023,-0.058 -0.418,-0.881 -0.67,-1.774 -0.94,-2.62 -0.285,-0.863 -0.552,-1.682 -0.808,-2.45 -0.56,-1.538 -0.831,-2.932 -1.104,-4.073 -0.548,-2.291 -0.908,-3.618 -0.908,-3.618 0,0 -0.022,1.344 0.019,3.738 0.033,1.194 -0.009,2.669 0.306,4.307 0.124,0.83 0.249,1.712 0.387,2.642 0.094,0.672 0.222,1.371 0.393,2.074 0.067,0.279 0.121,0.553 0.209,0.831 0.596,1.975 0.998,4.232 2.017,6.393 0.455,1.108 0.924,2.245 1.401,3.409 0.498,1.061 1.121,2.086 1.705,3.153 l -38.597,26.78 -0.803,-146.413 30.613,21.899 c 0.157,5.067 0.338,10.136 0.505,15.202 0.37,8.134 0.657,16.269 1.091,24.399 l 0.204,3.849 3.482,-1.723 4.677,-2.311 4.774,-2.079 4.867,-1.811 4.946,-1.55 c 1.676,-0.404 3.341,-0.886 5.032,-1.228 1.7,-0.285 3.385,-0.699 5.1,-0.881 1.714,-0.164 3.423,-0.493 5.153,-0.548 1.219,-0.072 2.434,-0.174 3.655,-0.21 l 30.196,21.602 -8.223,5.704 c -9.467,-0.155 -19.397,-0.067 -25.496,0.692 0.387,0.629 0.771,1.26 1.207,1.907 1.2,1.734 2.528,3.568 4.078,5.337 1.058,1.254 2.209,2.493 3.434,3.705 l -36.642,25.422 c -0.565,-0.888 -1.121,-1.765 -1.667,-2.625"
           style="fill:#ffa300;fill-opacity:1;fill-rule:nonzero;stroke:none"
           id="path4829"
           inkscape:connector-curvature="0" /><path
           d="m 631.583,414.363 -12.568,-29.968 -2.291,1.062 12.494,29.792 c -2.951,1.152 -5.862,2.5 -8.695,4.084 -5.134,2.869 -10.046,6.437 -14.527,10.48 l -20.975,-21.005 c 5.493,-5.987 11.659,-11.393 18.482,-16.153 9.924,-6.922 21.215,-12.019 32.807,-14.918 l 0.085,35.156 c -1.613,0.425 -3.217,0.916 -4.812,1.47"
           style="fill:#fd7700;fill-opacity:1;fill-rule:nonzero;stroke:none"
           id="path4831"
           inkscape:connector-curvature="0" /><path
           d="m 583.353,410.708 20.805,20.835 c -3.3,3.167 -6.336,6.579 -8.989,10.178 l -21.105,-18.826 c 2.818,-4.286 5.925,-8.346 9.289,-12.187"
           style="fill:#fd7700;fill-opacity:1;fill-rule:nonzero;stroke:none"
           id="path4833"
           inkscape:connector-curvature="0" /><path
           d="m 633.798,419.969 c 0,0 0.902,-0.06 2.612,-0.174 l 0.002,0.63 c -1.711,-0.297 -2.614,-0.456 -2.614,-0.456"
           style="fill:#fd7700;fill-opacity:1;fill-rule:nonzero;stroke:none"
           id="path4835"
           inkscape:connector-curvature="0" /><path
           d="m 539.026,353.247 -7.657,12.486 c 0.341,0.704 0.663,1.409 0.931,2.125 0.848,1.9 1.362,3.844 1.911,5.65 0.411,1.851 0.843,3.587 1.042,5.25 0.27,1.646 0.394,3.19 0.52,4.602 0.159,2.231 0.223,4.151 0.277,5.623 l -5.198,-4.636 c -0.659,-0.93 -1.357,-1.903 -2.146,-2.85 -0.89,-1.187 -1.981,-2.294 -3.027,-3.43 -1.157,-1.043 -2.248,-2.171 -3.533,-3.039 -1.174,-0.974 -2.547,-1.722 -3.787,-2.458 -0.332,-0.172 -0.675,-0.342 -1.018,-0.51 -0.09,-0.003 -0.184,-0.007 -0.274,-0.011 l -6.872,-6.13 z"
           style="fill:#fd7700;fill-opacity:1;fill-rule:nonzero;stroke:none"
           id="path4837"
           inkscape:connector-curvature="0" /><path
           d="m 284.484,350.275 -4.774,2.411 5.056,-1.732 c 0.366,-0.133 0.733,-0.256 1.101,-0.377 l 29.115,20.996 c -10.527,-0.099 -22.561,0.328 -29.682,0.64 -0.331,0.138 -0.669,0.282 -0.989,0.449 -1.239,0.736 -2.613,1.438 -3.791,2.41 -1.28,0.872 -2.372,1.977 -3.529,3.018 -1.042,1.135 -2.135,2.232 -3.03,3.418 -0.951,1.142 -1.77,2.319 -2.545,3.408 -1.516,2.227 -2.699,4.163 -3.6,5.562 -0.429,0.694 -0.802,1.189 -1.057,1.54 -0.253,0.344 -0.388,0.53 -0.388,0.53 0,0 0.024,-0.23 0.067,-0.657 0.048,-0.429 0.121,-1.063 0.139,-1.856 0.068,-1.548 0.117,-3.866 0.317,-6.675 0.126,-1.412 0.252,-2.956 0.523,-4.602 0.202,-1.663 0.631,-3.399 1.042,-5.25 0.549,-1.806 1.06,-3.75 1.914,-5.65 0.661,-1.795 1.627,-3.516 2.607,-5.287 l -9.16,-14.932 0.448,-12.638 20.798,14.998 c -0.194,0.092 -0.39,0.18 -0.582,0.276"
           style="fill:#f56500;fill-opacity:1;fill-rule:nonzero;stroke:none"
           id="path4839"
           inkscape:connector-curvature="0" /><path
           d="m 280.4,488.276 c 6.198,-7.228 20.512,-12.763 37.24,-14.88 l -37.286,14.936 c 0.016,-0.018 0.03,-0.037 0.046,-0.056"
           style="fill:#f56500;fill-opacity:1;fill-rule:nonzero;stroke:none"
           id="path4841"
           inkscape:connector-curvature="0" /><path
           d="m 264.385,472.422 c 11.139,-24.58 22.354,-30.16 22.354,-30.16 l -0.006,-0.007 -7.531,-14.408 -13.952,-26.689 c 0,0 2.657,-4.146 8.238,0.077 8.163,6.181 24.337,16.735 36.402,10.155 9.14,-4.988 17.737,-14.902 22.561,-23.386 -0.799,0.64 -1.597,1.288 -2.449,1.897 -4.627,3.427 -9.953,6.423 -15.511,8.722 -5.561,2.298 -11.412,3.808 -16.976,4.369 -5.574,0.513 -10.823,0.076 -15.048,-1.189 -2.12,-0.571 -3.969,-1.381 -5.534,-2.165 -1.557,-0.816 -2.849,-1.609 -3.841,-2.38 -1.028,-0.712 -1.709,-1.372 -2.202,-1.809 -0.487,-0.437 -0.746,-0.67 -0.746,-0.67 0,0 0.305,0.168 0.878,0.482 0.572,0.311 1.41,0.813 2.525,1.249 1.078,0.495 2.467,0.96 4.055,1.366 1.6,0.383 3.411,0.723 5.405,0.786 3.97,0.245 8.579,-0.456 13.198,-1.994 4.621,-1.587 9.249,-4.019 13.436,-7.021 4.178,-3.002 7.96,-6.489 10.998,-10.088 0.714,-0.812 1.376,-1.636 2.003,-2.461 l 32.579,23.495 c -0.125,0.315 -0.248,0.633 -0.4,0.944 -0.258,0.483 -0.517,0.973 -0.783,1.473 -0.526,0.99 -1.067,2.01 -1.616,3.051 -0.631,0.994 -1.274,2.008 -1.931,3.041 -0.326,0.515 -0.656,1.032 -0.987,1.555 -0.349,0.511 -0.761,0.985 -1.139,1.485 -0.784,0.981 -1.539,1.996 -2.317,3.009 -1.738,1.879 -3.388,3.889 -5.37,5.586 -1.803,1.876 -3.911,3.417 -5.886,5.052 -1.339,0.881 -2.617,1.831 -3.912,2.711 -0.775,0.525 -1.553,1.034 -2.363,1.47 -2.076,1.31 -4.21,2.347 -6.216,3.397 -1.007,0.519 -2.047,0.873 -3.015,1.324 -0.978,0.42 -1.909,0.894 -2.854,1.183 -1.876,0.614 -3.579,1.362 -5.136,1.726 -1.562,0.39 -2.898,0.919 -4.081,1.094 -2.322,0.487 -3.646,0.806 -3.646,0.806 0,0 1.359,0.056 3.731,0.084 1.184,0.065 2.635,-0.147 4.311,-0.297 1.702,-0.099 3.526,-0.54 5.564,-0.945 2.022,-0.438 4.169,-1.11 6.421,-1.882 2.202,-0.891 4.586,-1.738 6.85,-3.033 0.146,-0.069 0.287,-0.153 0.434,-0.223 2.194,-1.102 4.316,-2.489 6.472,-3.896 2.148,-1.701 4.436,-3.318 6.418,-5.294 2.093,-1.859 3.84,-4.056 5.658,-6.117 0.833,-1.093 1.603,-2.221 2.369,-3.331 0.373,-0.56 0.778,-1.095 1.119,-1.665 0.326,-0.581 0.646,-1.157 0.966,-1.73 0.619,-1.15 1.298,-2.246 1.832,-3.382 0.478,-1.164 0.945,-2.301 1.397,-3.409 0.296,-0.623 0.535,-1.254 0.746,-1.887 l 48.846,35.229 -73.862,29.586 c -0.087,0 -0.174,-0.003 -0.26,-0.003 -0.57,0 -1.134,0.049 -1.701,0.057 -23.835,0.319 -45.536,7.3 -54.353,17.579 -1.732,2.022 -2.973,4.179 -3.714,6.412 l -7.308,2.928 z"
           style="fill:#f56500;fill-opacity:1;fill-rule:nonzero;stroke:none"
           id="path4843"
           inkscape:connector-curvature="0" /><path
           d="m 56.107,412.276 c 5.797,-5.565 12.307,-10.756 19.371,-15.453 l 1.808,-1.207 h 0.002 l 5.048,-3.044 c 1.066,-0.641 2.132,-1.281 3.703,-2.114 l 6.238,-3.324 5.9,-2.687 c 16.558,-7.187 34.216,-10.453 50.386,-9.301 l -6.209,4.25 -0.159,-3.368 -2.528,0.022 0.237,5.022 -31.459,21.531 -8.254,-17.703 -2.328,0.98 8.472,18.168 -27.103,18.548 -14.538,-16.338 -1.971,1.603 14.38,16.192 -27.005,18.482 z"
           style="fill:#bc3600;fill-opacity:1;fill-rule:nonzero;stroke:none"
           id="path4845"
           inkscape:connector-curvature="0" /><path
           d="m 217.911,410.704 c 4.536,5.182 8.609,10.755 12.129,16.752 2.279,3.93 3.97,7.227 5.314,10.364 0.655,1.398 1.187,2.781 1.744,4.245 l 0.488,1.262 c 0.07,0.168 0.114,0.335 0.176,0.502 l -6.026,2.517 -20.44,-29.014 z"
           style="fill:#e07100;fill-opacity:1;fill-rule:nonzero;stroke:none"
           id="path4847"
           inkscape:connector-curvature="0" /><path
           d="m 259.222,485.362 c 1.691,-4.81 3.426,-9.106 5.163,-12.94 l 1.12,21.859 z"
           style="fill:#e07100;fill-opacity:1;fill-rule:nonzero;stroke:none"
           id="path4849"
           inkscape:connector-curvature="0" /><path
           d="m 197.76,392.655 c 6.821,4.758 12.99,10.162 18.48,16.153 l -6.419,6.429 -19.034,-27.018 c 2.387,1.382 4.716,2.861 6.973,4.436"
           style="fill:#e07100;fill-opacity:1;fill-rule:nonzero;stroke:none"
           id="path4851"
           inkscape:connector-curvature="0" /><path
           d="m 238.563,446.229 0.89,2.794 1.336,5.312 c 0.458,1.936 0.769,3.651 1.098,5.626 0.057,0.338 0.109,0.681 0.162,1.023 l -8.824,-12.525 z"
           style="fill:#e07100;fill-opacity:1;fill-rule:nonzero;stroke:none"
           id="path4853"
           inkscape:connector-curvature="0" /><path
           d="m 509.584,371.797 c -2.443,-0.07 -5.009,-0.132 -7.612,-0.174 l 8.223,-5.704 z"
           style="fill:#ff8800;fill-opacity:1;fill-rule:nonzero;stroke:none"
           id="path4855"
           inkscape:connector-curvature="0" /><path
           d="m 445.3,410.942 c 0.041,0.078 0.085,0.152 0.127,0.229 0.319,0.573 0.642,1.149 0.966,1.73 0.339,0.57 0.745,1.105 1.121,1.665 0.76,1.11 1.533,2.238 2.367,3.331 1.819,2.061 3.563,4.258 5.654,6.117 1.986,1.976 4.269,3.593 6.422,5.294 2.299,1.499 4.554,2.987 6.905,4.119 2.264,1.295 4.649,2.142 6.85,3.033 0.332,0.115 0.658,0.222 0.987,0.332 1.891,0.629 3.71,1.178 5.436,1.55 2.033,0.405 3.857,0.846 5.562,0.945 1.678,0.15 3.127,0.362 4.308,0.297 2.373,-0.028 3.734,-0.084 3.734,-0.084 0,0 -1.324,-0.319 -3.646,-0.806 -1.184,-0.175 -2.52,-0.704 -4.082,-1.094 -1.555,-0.364 -3.259,-1.112 -5.138,-1.726 -0.945,-0.289 -1.873,-0.763 -2.851,-1.183 -0.968,-0.451 -2.008,-0.805 -3.015,-1.324 -0.103,-0.054 -0.205,-0.107 -0.308,-0.16 -1.918,-0.995 -3.937,-1.99 -5.908,-3.237 -2.163,-1.164 -4.134,-2.773 -6.276,-4.181 -1.974,-1.635 -4.082,-3.176 -5.884,-5.052 -1.983,-1.697 -3.633,-3.707 -5.371,-5.586 -0.779,-1.013 -1.533,-2.028 -2.317,-3.009 -0.379,-0.5 -0.793,-0.974 -1.139,-1.485 -0.332,-0.523 -0.66,-1.04 -0.987,-1.555 -0.088,-0.14 -0.174,-0.277 -0.264,-0.416 l 36.642,-25.422 c 2.291,2.263 4.845,4.426 7.567,6.383 4.184,3.002 8.812,5.434 13.432,7.021 0.261,0.088 0.522,0.171 0.783,0.252 l -0.642,6.182 c -0.481,-0.031 -0.961,-0.066 -1.446,-0.11 -5.565,-0.561 -11.417,-2.071 -16.98,-4.369 -3.785,-1.565 -7.443,-3.474 -10.864,-5.602 4.98,7.105 12,14.343 19.382,18.369 2.774,1.513 5.767,2.117 8.832,2.081 l -6,57.795 c -6.864,-1.872 -14.53,-3.131 -22.56,-3.64 -2.64,-0.167 -5.314,-0.267 -8.015,-0.267 -0.18,0 -0.359,0.004 -0.538,0.005 l -61.443,-29.642 z"
           style="fill:#ff8800;fill-opacity:1;fill-rule:nonzero;stroke:none"
           id="path4857"
           inkscape:connector-curvature="0" /><path
           d="m 479.774,472.975 c 6.745,0.627 13.178,1.808 18.951,3.439 l -0.564,5.432 z"
           style="fill:#ff8800;fill-opacity:1;fill-rule:nonzero;stroke:none"
           id="path4859"
           inkscape:connector-curvature="0" /><path
           d="m 532.854,401.235 c 5.582,-4.223 8.304,-0.077 8.304,-0.077 l -15.464,29.752 -5.773,11.107 -0.127,0.245 c 0,0 16.169,16.03 27.152,38.452 l -26.031,0.604 c -5.252,-4.183 -12.783,-7.63 -21.656,-10.052 l 6,-57.795 c 10.258,-0.126 21.31,-7.475 27.595,-12.236"
           style="fill:#fd7400;fill-opacity:1;fill-rule:nonzero;stroke:none"
           id="path4861"
           inkscape:connector-curvature="0" /><path
           d="m 559.376,459.964 c 0.344,-2.053 0.646,-3.715 1.102,-5.647 l 2.26,-8.074 24.026,10.041 -0.159,0.362 -1.538,4.31 c -0.393,1.125 -0.816,2.605 -1.162,3.904 -0.673,2.48 -1.193,5.1 -1.577,8.005 -0.317,2.343 -0.472,4.696 -0.504,7.04 l -23.351,0.542 c -0.242,-3.084 -0.312,-6.179 -0.195,-9.259 0.135,-3.917 0.505,-7.689 1.098,-11.224"
           style="fill:#fd7400;fill-opacity:1;fill-rule:nonzero;stroke:none"
           id="path4863"
           inkscape:connector-curvature="0" /><path
           d="m 498.725,476.414 c 4.949,1.398 9.413,3.124 13.168,5.112 l -13.732,0.32 z"
           style="fill:#fd7400;fill-opacity:1;fill-rule:nonzero;stroke:none"
           id="path4865"
           inkscape:connector-curvature="0" /><path
           d="m 519.393,398.662 c 1.996,-0.063 3.808,-0.403 5.408,-0.786 1.586,-0.406 2.977,-0.871 4.055,-1.366 1.113,-0.436 1.95,-0.938 2.522,-1.249 0.572,-0.314 0.881,-0.482 0.881,-0.482 0,0 -0.258,0.233 -0.749,0.67 -0.49,0.437 -1.171,1.097 -2.202,1.809 -0.993,0.771 -2.282,1.564 -3.838,2.38 -1.568,0.784 -3.417,1.594 -5.536,2.165 -3.856,1.156 -8.568,1.617 -13.599,1.299 l 0.642,-6.182 c 4.357,1.361 8.67,1.973 12.416,1.742"
           style="fill:#fd7400;fill-opacity:1;fill-rule:nonzero;stroke:none"
           id="path4867"
           inkscape:connector-curvature="0" /><path
           d="m 590.041,449.603 c -0.452,0.734 -0.884,1.593 -1.307,2.451 l -0.554,1.099 c -0.144,0.253 -0.262,0.545 -0.385,0.826 l -24.293,-10.152 c 0.056,-0.152 0.1,-0.314 0.158,-0.462 l 0.49,-1.27 c 0.543,-1.409 1.101,-2.869 1.727,-4.194 1.374,-3.212 3.068,-6.508 5.358,-10.458 0.907,-1.545 1.852,-3.059 2.829,-4.548 l 21.105,18.826 c -0.176,0.238 -0.355,0.474 -0.527,0.715 -1.379,1.922 -3.142,4.471 -4.601,7.167"
           style="fill:#fd7400;fill-opacity:1;fill-rule:nonzero;stroke:none"
           id="path4869"
           inkscape:connector-curvature="0" /><path
           d="m 517.067,372.049 c -2.265,-0.088 -4.798,-0.176 -7.483,-0.252 l 0.611,-5.878 z"
           style="fill:#fd7400;fill-opacity:1;fill-rule:nonzero;stroke:none"
           id="path4871"
           inkscape:connector-curvature="0" /><path
           d="m 536.091,390.035 c 0.019,0.793 0.097,1.427 0.14,1.856 0.044,0.427 0.068,0.657 0.068,0.657 0,0 -0.136,-0.188 -0.388,-0.532 -0.255,-0.351 -0.631,-0.848 -1.057,-1.543 -0.902,-1.398 -2.084,-3.335 -3.599,-5.559 -0.133,-0.186 -0.268,-0.377 -0.403,-0.567 l 5.198,4.636 c 0.013,0.381 0.027,0.734 0.041,1.052"
           style="fill:#fd7400;fill-opacity:1;fill-rule:nonzero;stroke:none"
           id="path4873"
           inkscape:connector-curvature="0" /><path
           d="m 141.337,411.37 c -8.194,1.078 -16.547,3.865 -24.924,8.318 l -7.968,-17.085 31.459,-21.531 z"
           style="fill:#c22c00;fill-opacity:1;fill-rule:nonzero;stroke:none"
           id="path4875"
           inkscape:connector-curvature="0" /><path
           d="m 114.193,420.897 -2.83,1.629 -3.503,2.331 c -0.67,0.388 -1.386,1.204 -2.563,2.065 l -3.694,2.979 v 0.003 c 0,0.186 -0.872,0.381 -1.039,0.581 l -0.494,0.247 c -2.663,2.179 -5.246,4.444 -7.575,6.767 l -13.263,-14.903 27.103,-18.548 z"
           style="fill:#c22c00;fill-opacity:1;fill-rule:nonzero;stroke:none"
           id="path4877"
           inkscape:connector-curvature="0" /><path
           d="m 77.103,424.053 13.553,15.26 c -1.308,1.382 -2.584,2.779 -3.763,4.195 -3.538,4.266 -6.588,8.771 -9.163,13.476 L 50.098,442.535 Z"
           style="fill:#c22c00;fill-opacity:1;fill-rule:nonzero;stroke:none"
           id="path4879"
           inkscape:connector-curvature="0" /><path
           d="m 149.846,375.245 c 5.432,0.43 10.897,1.377 16.287,2.795 l -8.652,33.356 c -2.714,-0.379 -5.431,-0.577 -8.131,-0.577 l -1.165,0.012 c -1.439,0.023 -2.884,0.109 -4.334,0.238 l -1.497,-31.673 6.209,-4.25 c 0.429,0.03 0.857,0.062 1.283,0.099"
           style="fill:#c22c00;fill-opacity:1;fill-rule:nonzero;stroke:none"
           id="path4881"
           inkscape:connector-curvature="0" /><path
           d="m 130.785,471.926 c 3.021,-2.922 5.731,-4.381 7.079,-4.99 0.326,-0.158 0.616,-0.279 0.893,-0.387 l 1.159,3.33 0.003,0.1 c -0.149,0.084 -0.311,0.173 -0.481,0.278 -1.269,0.735 -3.277,2.174 -5.479,4.739 -1.492,1.751 -3.546,4.587 -5.351,8.594 l -4.804,-2.512 c 1.997,-3.503 4.382,-6.636 6.981,-9.152"
           style="fill:#c22c00;fill-opacity:1;fill-rule:nonzero;stroke:none"
           id="path4883"
           inkscape:connector-curvature="0" /><path
           d="m 86.694,457.45 c 2.947,-4.808 6.328,-9.146 9.965,-12.954 3.679,-3.773 7.572,-7.032 11.524,-9.798 3.955,-2.759 7.945,-5.057 11.88,-6.889 3.948,-1.806 7.795,-3.207 11.444,-4.33 7.311,-2.21 13.853,-3.156 19.205,-3.581 1.658,-0.151 3.205,-0.234 4.636,-0.276 l -0.772,2.979 c -1.029,0.255 -2.106,0.537 -3.235,0.847 -5.012,1.374 -10.943,3.493 -17.344,6.489 -6.336,3.121 -13.101,7.287 -19.393,12.906 -3.133,2.821 -6.113,6.028 -8.82,9.593 -2.745,3.531 -5.282,7.386 -7.364,11.614 -0.496,0.986 -0.967,1.992 -1.417,3.013 L 84.79,460.676 c 0.612,-1.098 1.246,-2.174 1.904,-3.226"
           style="fill:#c22c00;fill-opacity:1;fill-rule:nonzero;stroke:none"
           id="path4885"
           inkscape:connector-curvature="0" /><path
           d="m 163.111,419.679 c 2.84,0.189 4.355,0.29 4.355,0.29 0,0 -1.489,0.26 -4.281,0.747 -2.149,0.418 -5.072,1.002 -8.609,1.885 l 0.772,-2.979 c 3.192,-0.092 5.805,0.026 7.763,0.057"
           style="fill:#d54200;fill-opacity:1;fill-rule:nonzero;stroke:none"
           id="path4887"
           inkscape:connector-curvature="0" /><path
           d="m 190.787,388.219 19.034,27.018 -14.55,14.576 c -4.484,-4.046 -9.396,-7.614 -14.531,-10.482 -2.833,-1.582 -5.743,-2.93 -8.694,-4.082 l 12.496,-29.792 -2.29,-1.062 -12.569,29.968 c -4.02,-1.398 -8.108,-2.392 -12.202,-2.967 l 8.652,-33.356 c 8.548,2.252 16.908,5.694 24.654,10.179"
           style="fill:#d54200;fill-opacity:1;fill-rule:nonzero;stroke:none"
           id="path4889"
           inkscape:connector-curvature="0" /><path
           d="m 218.936,472.862 c -0.385,-2.895 -0.902,-5.52 -1.58,-8.015 -0.344,-1.288 -0.763,-2.763 -1.163,-3.912 l -1.471,-4.133 -0.226,-0.516 18.729,-7.827 8.824,12.525 c 0.495,3.234 0.811,6.656 0.933,10.196 0.139,3.534 0.027,7.092 -0.311,10.625 l -23.227,-1.647 c -0.024,-2.428 -0.179,-4.865 -0.508,-7.296"
           style="fill:#d54200;fill-opacity:1;fill-rule:nonzero;stroke:none"
           id="path4891"
           inkscape:connector-curvature="0" /><path
           d="m 231.736,446.346 -18.268,7.633 c -0.129,-0.292 -0.246,-0.583 -0.407,-0.877 l -0.515,-1.017 c -0.431,-0.871 -0.865,-1.738 -1.388,-2.595 -1.388,-2.571 -3.153,-5.126 -4.525,-7.049 -2.78,-3.867 -6.007,-7.522 -9.525,-10.898 l 14.188,-14.211 z"
           style="fill:#d54200;fill-opacity:1;fill-rule:nonzero;stroke:none"
           id="path4893"
           inkscape:connector-curvature="0" /><path
           d="m 256.455,493.854 c 0.903,-2.994 1.828,-5.823 2.767,-8.492 l 6.283,8.919 z"
           style="fill:#d54200;fill-opacity:1;fill-rule:nonzero;stroke:none"
           id="path4895"
           inkscape:connector-curvature="0" /><path
           d="m 242.392,484.316 c -0.373,2.964 -0.914,5.904 -1.605,8.802 l -22.462,-1.056 c 0.606,-3.084 0.963,-6.22 1.069,-9.376 z"
           style="fill:#d54200;fill-opacity:1;fill-rule:nonzero;stroke:none"
           id="path4897"
           inkscape:connector-curvature="0" /><path
           d="m 581.819,480.158 -23.229,1.647 c -0.043,-0.453 -0.082,-0.906 -0.117,-1.358 l 23.351,-0.542 c -10e-4,0.085 -0.003,0.169 -0.005,0.253"
           style="fill:#fa6200;fill-opacity:1;fill-rule:nonzero;stroke:none"
           id="path4899"
           inkscape:connector-curvature="0" /><path
           d="m 556.227,528.069 -30.424,-12.652 c 0.176,-2.296 0.502,-4.274 0.83,-5.941 l 1.562,-6.378 c 0.37,-1.517 0.655,-2.945 0.884,-4.407 0.742,-4.812 -0.761,-9.56 -4.344,-13.735 -1.084,-1.265 -2.365,-2.48 -3.82,-3.638 l 26.031,-0.604 c 6.888,14.063 11.738,30.64 9.281,47.355"
           style="fill:#fa6200;fill-opacity:1;fill-rule:nonzero;stroke:none"
           id="path4901"
           inkscape:connector-curvature="0" /><path
           d="m 568.161,513.022 c -4.844,-8.698 -8.01,-18.578 -9.29,-28.706 l 22.999,-1.63 c 0.247,7.248 1.806,14.394 4.697,21.055 0.911,2.112 1.951,4.162 3.099,6.151 l -16.521,11.015 c -1.807,-2.524 -3.477,-5.155 -4.984,-7.885"
           style="fill:#fa6200;fill-opacity:1;fill-rule:nonzero;stroke:none"
           id="path4903"
           inkscape:connector-curvature="0" /><path
           d="m 537.03,533.818 c 0.493,0.869 1.183,1.739 1.826,2.693 0.661,0.95 1.297,1.99 2.128,2.991 0.454,0.619 0.938,1.247 1.446,1.882 l -3.256,2.169 c -0.407,-0.759 -0.792,-1.503 -1.149,-2.227 -2.437,-4.807 -3.72,-8.891 -4.548,-11.592 -0.705,-2.751 -1.081,-4.217 -1.081,-4.217 0,0 0.702,1.343 2.018,3.857 0.634,1.272 1.6,2.714 2.616,4.444"
           style="fill:#fa6200;fill-opacity:1;fill-rule:nonzero;stroke:none"
           id="path4905"
           inkscape:connector-curvature="0" /><path
           d="m 509.328,549.528 11.022,-6.082 -1.139,-2.252 -10.318,5.694 -3.595,-21.787 9.306,-1.274 -0.252,-2.511 -9.464,1.296 -6.727,-40.766 13.732,-0.32 c 3.786,2.007 6.853,4.28 8.97,6.75 2.622,3.054 3.689,6.294 3.175,9.631 -0.209,1.319 -0.464,2.607 -0.758,3.825 l -1.629,6.645 c -0.731,3.708 -1.578,9.325 -0.726,16.56 0.924,8.314 3.929,16.662 8.937,24.824 l -18.464,12.31 z"
           style="fill:#fa6200;fill-opacity:1;fill-rule:nonzero;stroke:none"
           id="path4907"
           inkscape:connector-curvature="0" /><path
           d="m 675.117,532.174 -7.818,-6.298 c 1.327,-1.422 2.571,-2.968 3.614,-4.548 l 8.065,-8.274 -5.563,3.742 c 2.627,-5.789 3.189,-11.475 3.149,-15.486 -0.004,-0.576 -0.028,-1.154 -0.057,-1.733 l 6.945,-1.313 c 0.134,0.857 0.251,1.715 0.345,2.585 0.597,5.681 0.422,14.343 -3.779,23.324 -1.354,2.872 -2.989,5.506 -4.901,8.001"
           style="fill:#f03600;fill-opacity:1;fill-rule:nonzero;stroke:none"
           id="path4909"
           inkscape:connector-curvature="0" /><path
           d="m 760.49,482.035 -27.323,5.235 c -0.291,-2.502 -0.691,-4.978 -1.197,-7.422 l 30.937,0.393 z"
           style="fill:#f03600;fill-opacity:1;fill-rule:nonzero;stroke:none"
           id="path4911"
           inkscape:connector-curvature="0" /><path
           d="m 665.009,528.129 c 0.164,-0.145 0.325,-0.311 0.49,-0.462 l 8.024,6.462 c -0.449,0.522 -0.88,1.051 -1.359,1.562 l -2.384,2.334 -5.299,-9.468 z"
           style="fill:#f03600;fill-opacity:1;fill-rule:nonzero;stroke:none"
           id="path4913"
           inkscape:connector-curvature="0" /><path
           d="m 733.408,489.791 22.415,-4.294 -22.198,16.473 c 0.199,-4.091 0.131,-8.163 -0.217,-12.179"
           style="fill:#f03600;fill-opacity:1;fill-rule:nonzero;stroke:none"
           id="path4915"
           inkscape:connector-curvature="0" /><path
           d="m 705.325,522.763 c 3.783,-9.845 5.444,-20.364 4.869,-30.482 -0.247,-4.341 -0.859,-8.609 -1.81,-12.733 l 15.676,0.2 c 0.926,3.626 1.617,7.364 2.037,11.181 0.603,5.384 0.677,10.922 0.2,16.478 l -21.094,15.655 c 0.039,-0.1 0.082,-0.199 0.122,-0.299"
           style="fill:#f03600;fill-opacity:1;fill-rule:nonzero;stroke:none"
           id="path4917"
           inkscape:connector-curvature="0" /><path
           d="m 678.509,483.018 c 2.067,4.018 3.564,8.292 4.489,12.763 l -6.688,1.265 c -0.432,-4.025 -1.413,-7.991 -2.895,-11.659 -0.979,-2.488 -2.083,-4.592 -3.156,-6.323 l 6.036,0.078 c 0.79,1.239 1.531,2.536 2.214,3.876"
           style="fill:#f03600;fill-opacity:1;fill-rule:nonzero;stroke:none"
           id="path4919"
           inkscape:connector-curvature="0" /><path
           d="m 461.072,528.609 -27.663,3.787 0.432,2.485 24.967,-3.417 -18.814,23.721 c -0.401,-0.968 -0.842,-1.909 -1.332,-2.818 -2.249,-4.17 -5.81,-6.901 -9.25,-9.538 -3.032,-2.325 -5.894,-4.522 -7.349,-7.416 -1.344,-2.677 -2.606,-5.231 -3.775,-7.642 l -4.646,-36.121 c 6.858,-7.922 19.272,-13.259 25.534,-15.148 8.767,-2.645 18.975,-4.043 29.508,-4.043 3.749,0 7.464,0.179 11.09,0.516 l 18.387,8.871 z"
           style="fill:#ff7200;fill-opacity:1;fill-rule:nonzero;stroke:none"
           id="path4921"
           inkscape:connector-curvature="0" /><path
           d="m 468.146,467.364 c -10.835,0.047 -21.355,1.511 -30.447,4.254 -7.219,2.175 -17.528,6.762 -24.902,13.47 l -6.094,-47.366 z"
           style="fill:#ff7200;fill-opacity:1;fill-rule:nonzero;stroke:none"
           id="path4923"
           inkscape:connector-curvature="0" /><path
           d="m 409.198,506.46 c -1.308,-5.59 0.773,-10.569 4.444,-14.81 l 4.646,36.121 c -5.075,-10.467 -8.386,-18.201 -9.09,-21.311"
           style="fill:#fc6300;fill-opacity:1;fill-rule:nonzero;stroke:none"
           id="path4925"
           inkscape:connector-curvature="0" /><path
           d="m 412.797,485.088 c -6.455,5.873 -10.659,13.37 -8.57,22.301 0.144,0.647 0.381,2.081 0.669,2.081 h -8.526 c 0.291,0 0.528,-1.443 0.676,-2.097 4.469,-19.117 -19.945,-31.783 -33.481,-35.865 -9.17,-2.764 -19.788,-4.178 -30.724,-4.2 l 73.862,-29.586 z"
           style="fill:#fc6300;fill-opacity:1;fill-rule:nonzero;stroke:none"
           id="path4927"
           inkscape:connector-curvature="0" /><path
           d="m 367.423,534.881 0.434,-2.485 -37.324,-5.109 -52.829,-26.815 c -0.186,-0.875 -0.344,-1.724 -0.475,-2.568 -0.51,-3.314 0.543,-6.534 3.125,-9.572 l 37.286,-14.936 c 4.825,-0.61 9.85,-0.937 14.941,-0.937 10.537,0 20.74,1.398 29.51,4.043 9.61,2.897 33.726,13.924 29.983,29.94 -0.872,3.843 -5.684,14.669 -12.871,28.971 -1.453,2.894 -4.316,5.091 -7.349,7.416 -1.391,1.066 -2.799,2.149 -4.134,3.333 l -30.322,-15.39 z"
           style="fill:#fc6300;fill-opacity:1;fill-rule:nonzero;stroke:none"
           id="path4929"
           inkscape:connector-curvature="0" /><path
           d="m 272.813,491.353 c -0.675,2.038 -0.931,4.138 -0.75,6.256 l -6.558,-3.328 z"
           style="fill:#fc6300;fill-opacity:1;fill-rule:nonzero;stroke:none"
           id="path4931"
           inkscape:connector-curvature="0" /><path
           d="m 84.79,460.676 12.213,6.387 c -3.379,7.68 -5.426,16.297 -5.935,25.218 -0.572,10.118 1.087,20.637 4.871,30.483 3.838,9.823 9.772,18.978 17.514,26.431 1.929,1.866 3.929,3.671 6.057,5.32 0.734,0.602 1.449,1.13 2.159,1.647 l -4.3,18.388 c -0.22,-0.131 -0.443,-0.26 -0.662,-0.393 -1.633,-1.049 -2.532,-1.612 -4.011,-2.639 -1.415,-0.998 -2.842,-2.005 -4.114,-3.024 -2.633,-2.012 -5.132,-4.215 -7.546,-6.513 -2.698,-2.608 -5.229,-5.398 -7.571,-8.336 L 74.857,505.97 c -0.348,-5.074 -0.24,-10.12 0.311,-15.041 1.211,-11.009 4.658,-21.362 9.622,-30.253"
           style="fill:#be0006;fill-opacity:1;fill-rule:nonzero;stroke:none"
           id="path4933"
           inkscape:connector-curvature="0" /><path
           d="m 127.539,531.056 -1.393,1.121 c -1.909,-2.493 -3.547,-5.132 -4.903,-8.01 -4.199,-8.978 -4.372,-17.64 -3.773,-23.321 0.091,-0.867 0.208,-1.725 0.341,-2.58 l 6.946,1.311 c -0.029,0.579 -0.052,1.157 -0.059,1.733 -0.046,4.738 0.749,11.826 4.816,18.672 0.142,0.243 0.291,0.487 0.444,0.73 z"
           style="fill:#be0006;fill-opacity:1;fill-rule:nonzero;stroke:none"
           id="path4935"
           inkscape:connector-curvature="0" /><path
           d="m 108.232,591.48 5.304,-7.351 -2.102,-1.398 -4.294,5.951 -6.852,-17.555 c 4.703,4.4 9.786,8.337 15.143,11.712 l -3.96,16.938 z"
           style="fill:#be0006;fill-opacity:1;fill-rule:nonzero;stroke:none"
           id="path4937"
           inkscape:connector-curvature="0" /><path
           d="m 124.954,497.046 -6.688,-1.265 c 0.924,-4.471 2.422,-8.745 4.483,-12.752 0.337,-0.662 0.691,-1.312 1.055,-1.951 l 4.804,2.512 c -0.262,0.582 -0.519,1.188 -0.768,1.819 -1.474,3.65 -2.451,7.612 -2.886,11.637"
           style="fill:#be0006;fill-opacity:1;fill-rule:nonzero;stroke:none"
           id="path4939"
           inkscape:connector-curvature="0" /><path
           d="m 74.745,462.965 c -1.663,3.727 -3.055,7.563 -4.136,11.503 -1.174,4.161 -2.002,8.444 -2.508,12.802 l -0.586,-0.113 -14.22,-36.429 z"
           style="fill:#be0006;fill-opacity:1;fill-rule:nonzero;stroke:none"
           id="path4941"
           inkscape:connector-curvature="0" /><path
           d="m 77.73,456.984 c -0.666,1.217 -1.301,2.446 -1.903,3.689 l -23.99,-13.684 -1.739,-4.454 z"
           style="fill:#be0006;fill-opacity:1;fill-rule:nonzero;stroke:none"
           id="path4943"
           inkscape:connector-curvature="0" /><path
           d="m 69.204,517.416 -0.379,-2.497 -38.033,4.297 8.772,-34.844 28.294,5.421 c -1.51,17.462 2.19,35.984 10.803,52.669 5.447,10.708 12.882,20.482 21.627,28.665 l 6.852,17.555 -9.248,12.819 -46.634,5.919 c -1.315,-1.646 -2.6,-3.316 -3.852,-5.012 l 45.647,-35.683 -1.629,-1.928 -45.522,35.583 c -7.786,-10.9 -14.245,-22.77 -19.136,-35.34 -0.023,-0.062 -0.045,-0.127 -0.069,-0.189 l 51.086,-21.035 -1.05,-2.293 -50.91,20.961 c -1.246,-3.331 -2.375,-6.689 -3.388,-10.071 l 7.7,-30.584 z"
           style="fill:#b0001f;fill-opacity:1;fill-rule:nonzero;stroke:none"
           id="path4945"
           inkscape:connector-curvature="0" /><path
           d="m 79.629,528.798 c -2.676,-7.442 -4.245,-15.166 -4.772,-22.828 l 18.608,47.675 C 87.496,546.156 82.759,537.699 79.629,528.798"
           style="fill:#b0001f;fill-opacity:1;fill-rule:nonzero;stroke:none"
           id="path4947"
           inkscape:connector-curvature="0" /><path
           d="m 51.837,446.989 -2.502,-1.426 0.763,-3.028 z"
           style="fill:#b0001f;fill-opacity:1;fill-rule:nonzero;stroke:none"
           id="path4949"
           inkscape:connector-curvature="0" /><path
           d="m 111.471,599.777 -10.156,1.29 6.917,-9.587 z"
           style="fill:#b0001f;fill-opacity:1;fill-rule:nonzero;stroke:none"
           id="path4951"
           inkscape:connector-curvature="0" /><path
           d="m 53.295,450.728 14.22,36.429 -27.333,-5.237 8.514,-33.816 z"
           style="fill:#b0001f;fill-opacity:1;fill-rule:nonzero;stroke:none"
           id="path4953"
           inkscape:connector-curvature="0" /><path
           d="m 265.505,494.281 6.558,3.328 c 0.031,0.355 0.07,0.711 0.125,1.067 0.22,1.433 0.505,2.865 0.839,4.254 l 1.633,6.658 c 0.387,1.989 0.781,4.491 0.898,7.495 l -18.465,7.54 z"
           style="fill:#f23700;fill-opacity:1;fill-rule:nonzero;stroke:none"
           id="path4955"
           inkscape:connector-curvature="0" /><path
           d="m 282.053,541.194 -1.139,2.252 57.355,31.652 -55.123,0.122 -14.029,-15.041 -1.783,1.786 12.37,13.263 -32.52,0.071 c 9.587,-6.99 17.712,-15.362 23.359,-24.164 5.523,-8.592 8.821,-17.412 9.798,-26.216 0.849,-7.223 0.006,-12.837 -0.702,-16.431 l -1.614,-6.6 c -0.118,-0.485 -0.222,-0.953 -0.321,-1.416 l 52.829,26.815 -43.621,-5.971 -0.252,2.511 50.738,6.945 30.322,15.39 c -1.968,1.748 -3.775,3.72 -5.116,6.205 -2.686,4.973 -3.919,10.936 -5.114,16.699 -0.428,2.066 -0.846,4.087 -1.319,5.992 l -12.705,0.028 z"
           style="fill:#f23700;fill-opacity:1;fill-rule:nonzero;stroke:none"
           id="path4957"
           inkscape:connector-curvature="0" /><path
           d="m 260.282,539.502 c 0.828,-1.001 1.468,-2.041 2.126,-2.991 0.643,-0.954 1.333,-1.824 1.826,-2.693 1.016,-1.73 1.982,-3.172 2.616,-4.444 1.316,-2.514 2.02,-3.857 2.02,-3.857 0,0 -0.379,1.466 -1.083,4.217 -0.826,2.701 -2.112,6.785 -4.548,11.592 -2.39,4.84 -5.861,10.545 -10.911,16.287 -1.847,2.116 -3.894,4.25 -6.143,6.356 l 3.619,-13.054 c 4.327,-3.949 7.852,-7.838 10.478,-11.413"
           style="fill:#f23700;fill-opacity:1;fill-rule:nonzero;stroke:none"
           id="path4959"
           inkscape:connector-curvature="0" /><path
           d="m 190.162,531.58 c 2.123,-1.248 4.178,-2.632 6.133,-4.156 5.256,-4.058 9.778,-8.976 13.407,-14.482 l 16.31,10.726 c -5.57,7.112 -12.291,13.26 -19.898,18.065 -0.716,0.454 -1.437,0.894 -2.164,1.322 l -13.699,-11.304 z"
           style="fill:#db2f00;fill-opacity:1;fill-rule:nonzero;stroke:none"
           id="path4961"
           inkscape:connector-curvature="0" /><path
           d="m 233.111,513.013 c -1.662,3.012 -3.52,5.902 -5.544,8.658 l -16.512,-10.858 c 1.366,-2.276 2.592,-4.638 3.644,-7.081 1.631,-3.757 2.839,-7.67 3.626,-11.67 l 22.462,1.056 c -1.672,7.004 -4.253,13.747 -7.676,19.895"
           style="fill:#db2f00;fill-opacity:1;fill-rule:nonzero;stroke:none"
           id="path4963"
           inkscape:connector-curvature="0" /><path
           d="m 247.613,552.863 c 0.752,-0.65 1.481,-1.3 2.191,-1.948 l -3.619,13.054 c -2.546,2.386 -5.355,4.733 -8.428,6.979 l -7.816,-6.448 c 6.804,-3.532 12.782,-7.48 17.672,-11.637"
           style="fill:#db2f00;fill-opacity:1;fill-rule:nonzero;stroke:none"
           id="path4965"
           inkscape:connector-curvature="0" /><path
           d="m 257.093,524.623 -8.435,3.445 c 2.221,-13.309 4.901,-24.617 7.797,-34.214 l 9.05,0.427 z"
           style="fill:#db2f00;fill-opacity:1;fill-rule:nonzero;stroke:none"
           id="path4967"
           inkscape:connector-curvature="0" /><path
           d="m 505.298,525.101 3.595,21.787 -38.458,21.224 -26.056,3.842 c -0.204,-0.947 -0.403,-1.91 -0.606,-2.885 -0.974,-4.713 -1.978,-9.557 -3.779,-13.884 l 18.814,-23.721 z"
           style="fill:#fa6800;fill-opacity:1;fill-rule:nonzero;stroke:none"
           id="path4969"
           inkscape:connector-curvature="0" /><path
           d="m 509.328,549.528 2.07,12.543 -33.84,4.991 z"
           style="fill:#fa6800;fill-opacity:1;fill-rule:nonzero;stroke:none"
           id="path4971"
           inkscape:connector-curvature="0" /><path
           d="m 498.161,481.846 6.727,40.766 -43.816,5.997 z"
           style="fill:#fa6800;fill-opacity:1;fill-rule:nonzero;stroke:none"
           id="path4973"
           inkscape:connector-curvature="0" /><path
           d="m 763.342,481.488 -2.852,0.547 2.417,-1.794 z"
           style="fill:#e42300;fill-opacity:1;fill-rule:nonzero;stroke:none"
           id="path4975"
           inkscape:connector-curvature="0" /><path
           d="m 687.811,549.195 c 7.663,-7.378 13.551,-16.424 17.392,-26.133 l 21.094,-15.655 c -0.616,7.19 -2.154,14.414 -4.663,21.391 -3.582,10.19 -9.275,19.797 -16.507,28.038 l -18.531,-6.489 c 0.408,-0.381 0.813,-0.764 1.215,-1.152"
           style="fill:#e42300;fill-opacity:1;fill-rule:nonzero;stroke:none"
           id="path4977"
           inkscape:connector-curvature="0" /><path
           d="m 722.611,542.447 c 6.63,-12.836 10.345,-26.77 11.014,-40.477 l 22.198,-16.473 8.36,-1.601 12.578,36.03 -44.322,-5.007 -0.378,2.497 45.622,5.153 4.964,14.221 c -1.654,8.707 -4.062,17.291 -7.207,25.694 l -50.908,-20.961 -1.051,2.293 51.084,21.035 c -0.023,0.059 -0.041,0.119 -0.063,0.179 -1.847,4.748 -3.918,9.395 -6.199,13.928 l -56.409,-19.752 c 4.099,-5.229 7.712,-10.851 10.717,-16.759"
           style="fill:#e42300;fill-opacity:1;fill-rule:nonzero;stroke:none"
           id="path4979"
           inkscape:connector-curvature="0" /><path
           d="m 529.862,549.761 c 0.282,0.459 0.567,0.918 0.862,1.376 1.834,2.861 3.932,5.676 6.256,8.414 l -25.582,2.52 z"
           style="fill:#f64d00;fill-opacity:1;fill-rule:nonzero;stroke:none"
           id="path4981"
           inkscape:connector-curvature="0" /><path
           d="m 553.651,552.863 c 1.791,1.523 3.731,3.017 5.801,4.474 l -9.893,0.975 c -0.208,-0.233 -0.417,-0.467 -0.621,-0.699 -4.294,-4.884 -7.446,-9.738 -9.764,-14.06 l 3.256,-2.169 c 2.904,3.643 6.675,7.55 11.221,11.479"
           style="fill:#f64d00;fill-opacity:1;fill-rule:nonzero;stroke:none"
           id="path4983"
           inkscape:connector-curvature="0" /><path
           d="m 641.476,538.594 c 4.797,-0.539 9.451,-1.833 13.672,-3.895 1.754,-0.834 3.509,-1.838 5.196,-2.968 l 1.068,-0.713 0.012,0.017 3.057,-2.478 5.299,9.468 -1.284,1.257 -1.57,1.289 c -1.935,1.58 -3.99,3.027 -6.093,4.291 -1.835,1.134 -3.766,2.152 -5.767,3.055 l -12.067,1.189 z"
           style="fill:#f64d00;fill-opacity:1;fill-rule:nonzero;stroke:none"
           id="path4985"
           inkscape:connector-curvature="0" /><path
           d="m 605.793,547.307 7.52,-14.508 c 5.499,2.911 11.374,4.889 17.172,5.691 2.825,0.385 5.664,0.471 8.472,0.317 l 1.526,10.547 -21.557,2.124 c -4.445,-0.936 -8.844,-2.338 -13.133,-4.171"
           style="fill:#f64d00;fill-opacity:1;fill-rule:nonzero;stroke:none"
           id="path4987"
           inkscape:connector-curvature="0" /><path
           d="m 611.102,531.58 -7.63,14.72 c -2.835,-1.328 -5.615,-2.851 -8.316,-4.565 -7.613,-4.807 -14.334,-10.957 -19.904,-18.064 l 16.31,-10.729 c 3.632,5.506 8.154,10.425 13.416,14.487 1.948,1.521 4.003,2.904 6.124,4.151"
           style="fill:#f64d00;fill-opacity:1;fill-rule:nonzero;stroke:none"
           id="path4989"
           inkscape:connector-curvature="0" /><path
           d="m 589.666,509.892 c 0.179,0.309 0.358,0.616 0.542,0.921 l -16.512,10.858 c -0.186,-0.253 -0.369,-0.509 -0.551,-0.764 z"
           style="fill:#f64d00;fill-opacity:1;fill-rule:nonzero;stroke:none"
           id="path4991"
           inkscape:connector-curvature="0" /><path
           d="m 122.628,556.861 c 0.967,0.708 2.596,1.761 3.477,2.34 4.657,2.949 9.495,5.555 14.472,7.771 5.027,2.094 10.118,3.944 15.3,5.32 5.2,1.285 10.42,2.254 15.626,2.843 5.209,0.483 10.373,0.646 15.444,0.511 5.059,-0.247 10.027,-0.728 14.798,-1.639 9.51,-1.876 18.415,-4.664 26.108,-8.446 0.705,-0.35 1.399,-0.704 2.088,-1.061 l 7.816,6.448 c -1.588,1.159 -3.242,2.294 -4.971,3.389 -2.288,1.474 -4.702,2.885 -7.226,4.223 l -62.39,11.602 c -3.686,-0.409 -7.391,-0.995 -11.092,-1.77 -6.102,-1.365 -12.197,-3.168 -18.145,-5.538 -5.673,-2.349 -11.225,-5.116 -16.564,-8.304 l 4.3,-18.388 c 0.321,0.234 0.64,0.466 0.959,0.699"
           style="fill:#ca1500;fill-opacity:1;fill-rule:nonzero;stroke:none"
           id="path4993"
           inkscape:connector-curvature="0" /><path
           d="m 170.778,538.49 c 5.799,-0.802 11.677,-2.778 17.176,-5.691 l 7.52,14.507 c -7.643,3.267 -15.639,5.166 -23.601,5.496 -3.879,0.172 -7.731,-0.081 -11.492,-0.678 l 1.926,-13.314 c 2.81,0.154 5.649,0.067 8.471,-0.32"
           style="fill:#ca1500;fill-opacity:1;fill-rule:nonzero;stroke:none"
           id="path4995"
           inkscape:connector-curvature="0" /><path
           d="m 139.854,531.018 1.066,0.713 c 1.689,1.13 3.442,2.134 5.218,2.978 4.204,2.054 8.856,3.349 13.65,3.888 l -1.891,13.07 c -6.269,-1.282 -12.217,-3.564 -17.44,-6.788 -2.129,-1.282 -4.184,-2.731 -6.131,-4.316 l -3.931,-3.512 -1.316,-1.377 c -0.47,-0.505 -0.895,-1.028 -1.339,-1.542 l 8.031,-6.47 c 0.17,0.158 0.337,0.339 0.511,0.489 l 3.558,2.884 z"
           style="fill:#ca1500;fill-opacity:1;fill-rule:nonzero;stroke:none"
           id="path4997"
           inkscape:connector-curvature="0" /><path
           d="m 190.251,531.751 13.699,11.304 c -2.016,1.185 -4.072,2.268 -6.157,3.245 z"
           style="fill:#ca1500;fill-opacity:1;fill-rule:nonzero;stroke:none"
           id="path4999"
           inkscape:connector-curvature="0" /><path
           d="m 137.573,594.716 -2.416,-0.74 -0.52,1.493 -23.166,4.308 3.96,-16.938 c 3.291,2.075 6.683,3.94 10.157,5.564 4.704,2.211 9.619,4.063 14.604,5.503 0.354,0.114 0.728,0.22 1.11,0.324 l -3.806,0.707 z"
           style="fill:#ca1500;fill-opacity:1;fill-rule:nonzero;stroke:none"
           id="path5001"
           inkscape:connector-curvature="0" /><path
           d="m 133.968,525.876 -6.429,5.18 2.419,-10.344 c 1.113,1.775 2.502,3.551 4.01,5.164"
           style="fill:#ca1500;fill-opacity:1;fill-rule:nonzero;stroke:none"
           id="path5003"
           inkscape:connector-curvature="0" /><path
           d="m 164.876,598.588 -2.519,-0.152 -6.002,62.004 -28.336,-38.297 9.477,-27.206 3.806,-0.707 c 0.469,0.127 0.952,0.249 1.436,0.37 l 4.398,1.011 8.18,1.459 c 10.276,1.471 20.843,1.704 31.228,0.694 12.294,-1.183 24.279,-4.114 35.434,-8.597 l 4.376,15.217 -27.584,48.06 -4.791,-55.203 -2.502,0.309 5.095,58.724 -7.805,13.599 c -2.529,-0.114 -4.86,-0.959 -7.316,-1.852 -2.602,-0.946 -5.292,-1.922 -8.456,-2.19 -2.675,-0.218 -5.653,0.298 -8.489,0.811 -1.087,0.195 -2.144,0.389 -3.164,0.538 l -2.745,-3.711 z"
           style="fill:#c80b00;fill-opacity:1;fill-rule:nonzero;stroke:none"
           id="path5005"
           inkscape:connector-curvature="0" /><path
           d="m 126.202,619.687 -14.731,-19.91 23.166,-4.308 z"
           style="fill:#c80b00;fill-opacity:1;fill-rule:nonzero;stroke:none"
           id="path5007"
           inkscape:connector-curvature="0" /><path
           d="m 224.324,588.201 c 5.191,-2.214 10.188,-4.763 14.935,-7.643 0.397,-0.239 0.792,-0.479 1.185,-0.722 l -12.342,21.503 z"
           style="fill:#c80b00;fill-opacity:1;fill-rule:nonzero;stroke:none"
           id="path5009"
           inkscape:connector-curvature="0" /><path
           d="m 204.722,586.798 c -10.585,2.885 -22.25,4.506 -34.349,3.943 -2.389,-0.116 -4.792,-0.311 -7.203,-0.579 l 62.39,-11.602 c -6.286,3.33 -13.275,6.178 -20.838,8.238"
           style="fill:#c80b00;fill-opacity:1;fill-rule:nonzero;stroke:none"
           id="path5011"
           inkscape:connector-curvature="0" /><path
           d="m 245.144,576.752 2.169,1.49 34.716,64.279 2.262,-1.115 -32.421,-60.034 63.526,43.627 c -1.801,0.734 -3.765,1.346 -5.785,1.974 -3.714,1.158 -7.557,2.357 -10.878,4.5 -3.92,2.528 -7.267,5.766 -10.505,8.897 -4.032,3.895 -7.834,7.574 -12.532,9.824 -2.348,1.133 -5.027,1.377 -7.86,1.637 -2.786,0.253 -5.669,0.515 -8.582,1.612 -2.591,0.975 -5.07,2.454 -7.473,3.964 l -8.454,-79.423 c 0.61,-0.405 1.216,-0.816 1.817,-1.232"
           style="fill:#e21c00;fill-opacity:1;fill-rule:nonzero;stroke:none"
           id="path5013"
           inkscape:connector-curvature="0" /><path
           d="m 249.136,576.31 -2.175,1.28 0.352,0.652 -2.169,-1.49 c 0.687,-0.477 1.367,-0.962 2.04,-1.453 l 32.52,-0.071 39.72,42.586 1.908,-1.653 -38.186,-40.941 55.123,-0.122 11.761,6.49 1.3,-2.162 -7.864,-4.34 12.705,-0.028 c -0.758,3.065 -1.653,5.829 -2.944,7.99 -2.96,4.956 -8.104,8.386 -12.235,11.142 -2.539,1.694 -4.733,3.157 -6.054,4.729 -2.646,3.309 -4.366,6.955 -6.031,10.48 -2.278,4.825 -4.428,9.38 -8.676,12.869 -1.377,1.129 -3.024,1.992 -4.835,2.731 L 251.87,581.372 Z"
           style="fill:#f24600;fill-opacity:1;fill-rule:nonzero;stroke:none"
           id="path5015"
           inkscape:connector-curvature="0" /><path
           d="m 560.143,662.99 c -3.195,-0.856 -6.276,-2.807 -9.531,-4.872 -2.757,-1.744 -5.605,-3.546 -8.6,-4.675 -2.915,-1.097 -5.796,-1.359 -8.584,-1.612 -2.834,-0.26 -5.512,-0.504 -7.858,-1.634 -4.698,-2.251 -8.507,-5.932 -12.533,-9.827 -3.24,-3.131 -6.584,-6.369 -10.507,-8.897 -2.422,-1.563 -5.121,-2.623 -7.845,-3.532 l 8.33,-32.829 17.214,-18.455 16.761,27.685 -20.014,37.064 2.258,1.115 19.271,-35.678 22.424,37.038 -3.676,12.783 2.446,0.608 3.007,-10.454 10.289,16.993 c -1.46,0.048 -2.916,0.091 -4.361,0.091 -3.512,0 -6.131,-0.282 -8.491,-0.912"
           style="fill:#e94c00;fill-opacity:1;fill-rule:nonzero;stroke:none"
           id="path5017"
           inkscape:connector-curvature="0" /><path
           d="m 511.398,562.071 7.472,12.343 -14.567,15.62 z"
           style="fill:#e94c00;fill-opacity:1;fill-rule:nonzero;stroke:none"
           id="path5019"
           inkscape:connector-curvature="0" /><path
           d="m 681.753,554.515 c 1.689,-1.306 3.29,-2.714 4.843,-4.168 l 18.531,6.489 c -1.564,1.781 -3.197,3.499 -4.9,5.145 -2.414,2.296 -4.912,4.501 -7.545,6.513 -1.011,0.81 -2.121,1.612 -3.245,2.409 l -9.257,-15.17 c 0.517,-0.384 1.041,-0.783 1.573,-1.218"
           style="fill:#db1300;fill-opacity:1;fill-rule:nonzero;stroke:none"
           id="path5021"
           inkscape:connector-curvature="0" /><path
           d="m 711.894,559.206 56.409,19.752 c -3.759,7.473 -8.091,14.636 -12.94,21.422 l -45.519,-35.583 -1.634,1.928 45.647,35.683 c -7.935,10.756 -17.171,20.526 -27.483,29.027 l -32.906,-53.926 c 6.818,-5.253 13.044,-11.438 18.426,-18.303"
           style="fill:#db1300;fill-opacity:1;fill-rule:nonzero;stroke:none"
           id="path5023"
           inkscape:connector-curvature="0" /><path
           d="m 684.616,654.784 2.349,-0.921 -20.859,-59.887 -2.414,0.74 z m 38.741,-21.273 1.989,-1.553 -35.516,-49.227 -2.102,1.398 z m -80.586,31.029 2.501,-0.335 -1.296,-13.393 16.382,-56.692 c 0.264,-0.075 0.527,-0.152 0.788,-0.235 4.917,-1.421 9.833,-3.271 14.535,-5.484 6.232,-2.914 12.207,-6.592 17.787,-10.892 l 32.906,53.926 c -6.053,4.989 -12.474,9.542 -19.225,13.597 -7.447,4.488 -15.319,8.411 -23.393,11.662 -1.124,0.429 -7.696,1.416 -11.622,2.005 -4.774,0.718 -6.8,1.034 -7.613,1.279 -0.784,0.198 -2.449,0.888 -5.555,2.191 -4.445,1.863 -11.16,4.675 -14.099,5.146 -1.696,0.275 -3.576,0.088 -5.593,-0.235 l 2.803,-9.7 z"
           style="fill:#dd1c00;fill-opacity:1;fill-rule:nonzero;stroke:none"
           id="path5025"
           inkscape:connector-curvature="0" /><path
           d="m 675.155,559.201 c 0.885,-0.579 2.514,-1.632 3.48,-2.34 0.513,-0.375 1.026,-0.744 1.545,-1.128 l 9.257,15.17 c -0.29,0.205 -0.58,0.41 -0.87,0.615 -1.478,1.027 -2.38,1.59 -4.01,2.636 -5.537,3.36 -11.319,6.254 -17.226,8.7 -1.382,0.551 -2.771,1.067 -4.167,1.559 l 6.31,-21.838 c 1.922,-1.068 3.817,-2.192 5.681,-3.374"
           style="fill:#dd1c00;fill-opacity:1;fill-rule:nonzero;stroke:none"
           id="path5027"
           inkscape:connector-curvature="0" /><path
           d="m 573.414,565.561 c 7.695,3.782 16.595,6.57 26.107,8.446 4.769,0.911 9.737,1.392 14.795,1.639 5.076,0.135 10.237,-0.028 15.448,-0.511 5.205,-0.589 10.424,-1.558 15.624,-2.843 5.184,-1.376 10.271,-3.226 15.3,-5.32 2.983,-1.328 5.914,-2.799 8.786,-4.397 l -6.31,21.838 c -4.614,1.622 -9.294,2.932 -13.976,3.979 -6.121,1.282 -12.254,2.055 -18.297,2.349 -12.102,0.563 -23.764,-1.058 -34.346,-3.943 -10.6,-2.887 -20.08,-7.317 -28.066,-12.461 -7.708,-4.88 -13.993,-10.5 -18.92,-16.025 l 9.893,-0.975 c 4.152,2.923 8.838,5.692 13.962,8.224"
           style="fill:#ed4100;fill-opacity:1;fill-rule:nonzero;stroke:none"
           id="path5029"
           inkscape:connector-curvature="0" /><path
           d="m 629.399,552.802 c -3.497,-0.145 -6.999,-0.592 -10.473,-1.324 l 21.557,-2.124 0.4,2.756 c -2.972,0.473 -5.985,0.745 -9.011,0.745 -0.822,0 -1.644,-0.016 -2.473,-0.053"
           style="fill:#ed4100;fill-opacity:1;fill-rule:nonzero;stroke:none"
           id="path5031"
           inkscape:connector-curvature="0" /><path
           d="m 642.999,549.106 12.067,-1.189 c -3.693,1.667 -7.631,2.936 -11.694,3.768 z"
           style="fill:#ed4100;fill-opacity:1;fill-rule:nonzero;stroke:none"
           id="path5033"
           inkscape:connector-curvature="0" /><path
           d="m 554.307,577.59 -2.18,-1.28 -15.137,28.032 -16.761,-27.685 13.704,-14.692 -1.787,-1.786 -13.276,14.235 -7.472,-12.343 25.582,-2.52 c 6.725,7.92 15.351,15.188 25.036,21.011 4.742,2.88 9.736,5.428 14.924,7.639 l -16.011,55.68 -22.424,-37.038 z"
           style="fill:#ed4100;fill-opacity:1;fill-rule:nonzero;stroke:none"
           id="path5035"
           inkscape:connector-curvature="0" /><path
           d="m 603.855,665.941 5.934,-68.391 -2.504,-0.309 -5.952,68.574 z M 579.29,589.167 c 11.15,4.483 23.135,7.414 35.432,8.6 10.377,1.004 20.966,0.772 31.194,-0.693 l 3.561,-0.529 9.052,-1.945 c 0.612,-0.153 1.224,-0.308 1.829,-0.48 l -16.382,56.692 -5.07,-52.376 -2.518,0.152 5.689,58.792 -2.803,9.7 c -0.817,-0.131 -1.657,-0.284 -2.517,-0.438 -2.836,-0.512 -5.816,-1.037 -8.487,-0.811 -3.166,0.268 -5.856,1.244 -8.457,2.19 -2.64,0.961 -5.135,1.866 -7.841,1.866 -5.193,-0.015 -10.183,-1.469 -15.471,-3.011 -3.773,-1.098 -7.676,-2.23 -11.615,-2.783 -1.967,-0.276 -4.064,-0.402 -6.595,-0.402 -1.656,0 -3.307,0.053 -4.95,0.109 -0.115,0.003 -0.232,0.007 -0.346,0.011 l -10.289,-16.993 z"
           style="fill:#ed4100;fill-opacity:1;fill-rule:nonzero;stroke:none"
           id="path5037"
           inkscape:connector-curvature="0" /><path
           d="m 75.919,631.958 1.99,1.553 23.406,-32.444 10.156,-1.29 -33.454,34.171 C 68.099,626.179 59.118,617.255 51.258,607.42 l 46.634,-5.919 z"
           style="fill:#aa0024;fill-opacity:1;fill-rule:nonzero;stroke:none"
           id="path5039"
           inkscape:connector-curvature="0" /><path
           d="m 449.934,579.426 1.299,2.162 26.325,-14.526 33.84,-4.991 -7.095,27.963 -24.369,26.127 1.906,1.653 21.175,-22.702 -8.33,32.829 c -1.01,-0.337 -2.025,-0.654 -3.029,-0.968 -4.052,-1.259 -7.876,-2.451 -10.621,-4.705 -4.251,-3.489 -6.398,-8.044 -8.676,-12.869 -1.665,-3.525 -3.385,-7.17 -5.992,-10.433 -1.36,-1.619 -3.553,-3.082 -6.093,-4.776 -4.13,-2.756 -9.275,-6.185 -12.238,-11.142 -1.712,-2.871 -2.73,-6.804 -3.657,-11.094 l 26.056,-3.842 z"
           style="fill:#f55e00;fill-opacity:1;fill-rule:nonzero;stroke:none"
           id="path5041"
           inkscape:connector-curvature="0" /><path
           d="m 197.411,665.941 2.519,-0.126 -1.16,-13.371 27.584,-48.06 15.21,52.888 2.449,-0.608 -15.911,-55.325 12.342,-21.503 c 0.973,-0.603 1.932,-1.221 2.883,-1.852 l 8.454,79.423 c -0.378,0.237 -0.753,0.475 -1.127,0.711 -3.258,2.065 -6.339,4.016 -9.533,4.872 -2.358,0.63 -4.977,0.912 -8.492,0.912 -1.555,0 -3.127,-0.05 -4.703,-0.102 -1.644,-0.056 -3.297,-0.109 -4.95,-0.109 -2.531,0 -4.631,0.126 -6.595,0.402 -3.943,0.553 -7.845,1.685 -11.618,2.783 -5.285,1.542 -10.276,2.996 -15.421,3.011 -0.193,0 -0.384,-0.005 -0.575,-0.014 l 7.805,-13.599 z"
           style="fill:#cf1300;fill-opacity:1;fill-rule:nonzero;stroke:none"
           id="path5043"
           inkscape:connector-curvature="0" /><path
           d="m 126.202,619.687 -11.903,34.176 2.349,0.921 11.371,-32.641 28.336,38.297 -0.363,3.765 2.501,0.335 0.104,-1.071 2.745,3.711 c -1.773,0.258 -3.434,0.381 -4.946,0.135 -2.936,-0.471 -9.653,-3.283 -14.095,-5.144 -3.11,-1.305 -4.775,-1.995 -5.664,-2.22 -0.708,-0.218 -2.734,-0.534 -7.505,-1.252 -3.925,-0.589 -10.5,-1.576 -11.601,-1.993 -8.097,-3.263 -15.969,-7.186 -23.415,-11.671 -5.599,-3.365 -10.974,-7.072 -16.099,-11.087 l 33.454,-34.171 z"
           style="fill:#b40012;fill-opacity:1;fill-rule:nonzero;stroke:none"
           id="path5045"
           inkscape:connector-curvature="0" /></g></g></g></svg>